<svg width="3000" height="3000" viewBox="0 0 3000 3000" fill="none" xmlns="http://www.w3.org/2000/svg">
<rect width="3000" height="3000" rx="250" fill="#222222"/>
<path fill-rule="evenodd" clip-rule="evenodd" d="M2273.98 428.102C2261.85 480.709 2223.49 523.286 2173.41 541.319C2178.35 553.258 2182.92 566.673 2187 581.742C2206.12 652.388 2211.25 749.475 2196.29 869.881C2174.67 1043.98 2112.89 1252.17 2011.63 1470.98C2000.47 1469.25 1989.03 1468.35 1977.39 1468.35C1855.05 1468.35 1755.87 1567.53 1755.87 1689.87C1755.87 1745.55 1776.41 1796.43 1810.33 1835.35C1645.1 2090.69 1459.12 2291.74 1288.04 2417.21C1193 2486.91 1107.94 2529.34 1038.06 2547.97C1051.75 2569.85 1059.67 2595.71 1059.67 2623.42C1059.67 2648.63 1053.12 2672.32 1041.62 2692.86C1306.29 2640.57 1652.51 2342.62 1933.11 1906.97C1947.42 1909.87 1962.22 1911.39 1977.39 1911.39C2099.73 1911.39 2198.91 1812.22 2198.91 1689.87C2198.91 1630.54 2175.58 1576.65 2137.59 1536.88C2354.48 1071.09 2408.08 635.975 2273.98 428.102ZM1973.17 451.992C1971.48 452.39 1969.78 452.803 1968.06 453.233C1897.06 470.972 1809.79 513.827 1711.95 585.582C1516.69 728.783 1302.02 970.43 1120.95 1278.9C939.884 1587.37 833.546 1892.61 803.698 2132.91C788.743 2253.31 793.867 2350.4 812.992 2421.05C822.181 2454.98 833.851 2480.53 846.649 2499.72C803.76 2524.26 774.859 2570.46 774.859 2623.42C774.859 2626.65 774.967 2629.87 775.179 2633.05C550.298 2430.06 642.216 1813.98 998.49 1207.02C1299.56 694.101 1698.36 342.841 1987.82 305.084C1971.23 330.111 1961.57 360.129 1961.57 392.405C1961.57 413.484 1965.69 433.601 1973.17 451.992Z" fill="#61DAFB"/>
<circle cx="917.266" cy="2623.42" r="126.582" fill="#787878"/>
<circle cx="2119.8" cy="392.405" r="142.405" fill="#525252"/>
<circle cx="1977.39" cy="1689.87" r="189.873" fill="#222222"/>
</svg>
